<?xml version="1.0" encoding="UTF-8"?>
<svg xmlns="http://www.w3.org/2000/svg" xmlns:xlink="http://www.w3.org/1999/xlink" width="4001" height="4001" viewBox="0 0 4001 4001" transform="rotate(-90)">
    <path fill-rule="evenodd" fill="#4fc4ff" fill-opacity="1" d="M 3273.460938 2000.429688 C 3273.460938 2703.691406 2703.359375 3273.800781 2000.089844 3273.800781 C 1296.828125 3273.800781 726.71875 2703.691406 726.71875 2000.429688 C 726.71875 1297.171875 1296.828125 727.054688 2000.089844 727.054688 C 2703.359375 727.054688 3273.460938 1297.160156 3273.460938 2000.429688 "/>
    <path fill-rule="evenodd" fill="rgb(100%, 100%, 100%)" fill-opacity="1" d="M 2270.351562 1287.359375 L 2158.691406 1283.699219 L 1529.921875 1722.089844 L 791.941406 1612.300781 C 750.363281 1738.078125 727.789062 1872.511719 727.789062 2012.21875 C 727.789062 2174.609375 758.25 2329.871094 813.664062 2472.691406 L 1445.71875 2426.828125 L 1885.949219 2644.660156 L 2104.691406 2678.519531 L 1834.699219 2417.679688 L 1968.410156 2212.53125 L 1584.289062 2067.351562 L 2044.078125 2042.460938 L 2224.589844 1659.859375 L 2358.210938 1729.421875 L 2311.640625 1909.03125 L 2334.390625 1988.828125 L 2486.351562 2070.800781 L 2696.851562 1631.488281 C 2714.238281 1594.878906 2713.328125 1572.910156 2677.628906 1550.488281 Z M 2394.820312 2598.890625 L 2058.941406 2294.121094 L 1926.21875 2419.511719 L 2214.519531 2740.761719 Z M 2247.46875 2088.191406 L 2087.300781 2263.921875 L 2449.738281 2590.660156 L 2651.550781 2384.269531 Z M 2866.171875 2101 L 2598.921875 1941.75 L 2507.480469 2119.539062 L 2323.058594 2043.671875 L 2301.128906 2080.160156 L 2700.511719 2355.441406 Z M 2996.140625 1801.71875 L 2733.460938 1656.199219 L 2618.148438 1900.570312 L 2868 2051.578125 L 2996.140625 1801.71875 "/>
    <path fill-rule="evenodd" fill="#4fc4ff" fill-opacity="1" d="M 1327.878906 2044 L 983.753906 2059.558594 L 1318.730469 2116.300781 L 1381.941406 2238.160156 L 1393.761719 1927.390625 L 1327.878906 2044 "/>
</svg>